#!OML:ASF F:\VICON\USERDATA\INSTALL\rory3\rory3.ASF
:FULLY-SPECIFIED
:DEGREES
55
root 0.21577990862143848 17.852090322753615 17.236885235846714 -2.0553907500351505 1.39897044548955 1.961889741686095
lfemur 7.003282368516702 -2.566659004373368 -26.734565848949515
ltibia 14.079890521929642
lfoot -16.09708844976635 -1.620805420831993
ltoes -0.5480553316910797
rfemur -25.280286518799898 4.660125357991907 18.480508149311916
rtibia 24.71918989214968
rfoot -6.24413835497532 -16.043985676089015
rtoes -3.453125978328093
lowerback 9.980359053748654 -0.7210521467426734 -3.1118976858941396
upperback 0.285420132680228 -1.2335154578534613 0.7666125455979197
thorax -5.240872903546904 -0.5543316564191592 2.7488234428401137
lowerneck -16.29303288883101 -2.924643489836972 -2.526835278594587
upperneck 19.575798952991754 -3.8257678743079047 2.3457604131370844
head 8.908858210735955 -1.7784422514982312 0.8331228478908159
lclavicle -4.54790048692913e-16 -7.775847841666145e-16
lhumerus -22.65674376835024 -0.3391570220472637 79.39717104076723
lradius 30.070330010408426
lwrist 8.814967011311229
lhand -27.716397647052727 23.146719047887025
lfingers 7.12502
lthumb -1.1278969798256882 53.00510422592091
rclavicle -4.46666467067252e-16 -7.695841252600721e-16
rhumerus -32.833939310617 -19.220447393373853 -78.7747806024933
rradius 27.31167583582126
rwrist 2.195479922522652
rhand -17.36188131050935 22.994851556269637
rfingers 7.12502
rthumb 8.793551079925182 -6.918899261851474
56
root 0.16081140879405048 17.7781510063622 18.04408757388977 -1.8528342621361986 2.0822229460822794 1.8537470402945933
lfemur 9.51237095385745 -2.7338523124350647 -26.05012953114731
ltibia 12.878878306386358
lfoot -16.112879660484037 -2.432700493454067
ltoes -3.333869559226955
rfemur -24.177988709084673 6.73612518359278 17.53823747389618
rtibia 16.818083661474308
rfoot -7.921769889499704 -17.860753028987453
rtoes -7.681415121410458
lowerback 10.082165998646207 -0.9036437341610677 -3.065312581308074
upperback 0.2835230244229398 -1.5457030659704174 0.9068079924823655
thorax -5.193049061312078 -0.7170548801814772 2.7548077369086945
lowerneck -16.326039523250152 -2.9545417485369 -2.547512083856498
upperneck 19.531966678020396 -3.8837983831287 2.4306616235053804
head 8.902340692844428 -1.7918093394876629 0.8566941733363115
lclavicle -4.546479722318538e-16 -7.774756287617971e-16
lhumerus -21.964316897236728 -0.6693644128403564 79.16149933822626
lradius 31.58744570500467
lwrist 9.189019540962208
lhand -28.508813601355207 22.224382544817466
lfingers 7.12502
lthumb -1.7237241471905123 52.39545168961742
rclavicle -4.501781789482307e-16 -7.721197647061018e-16
rhumerus -33.5182078595893 -20.30566806690629 -78.04493806230322
rradius 26.237430575655114
rwrist 3.2410619815446173
rhand -17.543832891962918 23.13543706581026
rfingers 7.12502
rthumb 8.664223839242766 -6.461636516407534
57
root 0.1104304133311931 17.683469357920547 18.883371595517524 -2.0181878096925505 1.8842443439715093 2.2562579848814277
lfemur 11.56145916498315 -3.0601764612822944 -26.290649259385983
ltibia 13.459110718903649
lfoot -16.19407254758208 -2.672860150011687
ltoes -6.346891700453176
rfemur -24.687334734208484 3.8771281696323063 18.79596088411258
rtibia 17.98573191158342
rfoot -8.86551079496184 -14.269050765217047
rtoes -7.982677032912573
lowerback 10.333014312514708 -0.7418295553297389 -3.4640680207054526
upperback 0.3734455538078692 -1.3459610350547726 0.8362344183205752
thorax -5.1649276041588505 -0.6075097877016725 2.7762059464714817
lowerneck -16.412997157382524 -2.9836892951331255 -2.5804528460506626
upperneck 19.527085366169004 -3.928739348704609 2.3516751194307686
head 8.914739838230128 -1.8074033244189898 0.8163997508355335
lclavicle -4.540927268202151e-16 -7.770465585191747e-16
lhumerus -21.608773511720322 -0.3493408196255352 79.01141105191682
lradius 32.498893711328954
lwrist 9.714749617497391
lhand -30.021122765111972 19.48603764912877
lfingers 7.12502
lthumb -3.1865000850255845 49.78508495027837
rclavicle -4.499113420424356e-16 -7.719958464007047e-16
rhumerus -34.04237681924208 -21.691462737708996 -77.0686722163042
rradius 25.128337276185256
rwrist 4.574152685148476
rhand -17.719256280886714 23.122253259475734
rfingers 7.12502
rthumb 8.430071356825252 -6.369281768959379
58
root 0.04990644097526353 17.69336158643561 19.867118573148467 -2.2772619438429937 2.250614854122024 2.2620557221913664
lfemur 13.204733065381115 -4.133095896679018 -26.21207126766284
ltibia 14.824818797514776
lfoot -14.26808127041074 -4.105579799151085
ltoes -10.384539145592408
rfemur -24.977677766756116 2.5828754186727956 19.51961286144726
rtibia 22.22207958277537
rfoot -7.063010795859205 -11.564370666869454
rtoes -8.41534709299546
lowerback 10.093544718702253 -0.8581630883820242 -3.504079185062107
upperback 0.4235422563535267 -1.470131990672347 0.8431310118969191
thorax -5.004131771485448 -0.6877370608087755 2.657566563766454
lowerneck -16.451720925138794 -2.925673761097132 -2.5141718445800976
upperneck 19.598745332145036 -3.8357346199546476 2.2159938481899473
head 8.937052642544112 -1.7689579992925206 0.7587257561882784
lclavicle -4.532964747040618e-16 -7.764310197897542e-16
lhumerus -22.17663849684223 0.48369964131263465 78.87203241208711
lradius 33.306601141162716
lwrist 9.581772846824158
lhand -31.28475086660057 17.412399175264213
lfingers 7.12502
lthumb -4.649001691719563 47.30078141489073
rclavicle -4.523733647570166e-16 -7.739632019124308e-16
rhumerus -34.87028480666113 -23.452958269611322 -75.86151420013869
rradius 23.876087330866266
rwrist 5.915476915660653
rhand -17.579658500351464 23.250003718277505
rfingers 7.12502
rthumb 8.548213591431784 -6.317007085529379
59
root -0.01761347377898287 17.760789131196606 20.864427516484078 -2.80847684667727 2.3793524260140066 -0.1155036448728688
lfemur 12.302777753357576 -5.955319495234754 -23.570990844892624
ltibia 20.4398269111551
lfoot -10.612961469020332 -6.615041556205402
ltoes -14.510947468512299
rfemur -23.932119441682094 3.416755439449811 22.351255076910306
rtibia 24.367624295296196
rfoot -4.362672075466371 -9.749571404513919
rtoes -6.264703218723691
lowerback 10.20907185389186 -1.0956656887749465 -0.9060519769080029
upperback 0.38724845377431333 -1.5024680985179992 1.587683186147593
thorax -5.192522366581315 -0.7392153029332754 1.9855461422797123
lowerneck -16.344110773525927 -2.8400177479623347 -2.5183603640808503
upperneck 19.761704533598433 -3.688723959692986 1.9545416971842295
head 8.97489759526909 -1.7222042740547896 0.6725375214340497
lclavicle -4.521018378801027e-16 -7.75507135345915e-16
lhumerus -23.712321282744874 1.966317690892616 79.02047217808358
lradius 33.354064254784085
lwrist 9.904317930817175
lhand -32.19835638767107 15.516786210991521
lfingers 7.12502
lthumb -5.469370168510597 45.4683868722805
rclavicle -4.522571014604729e-16 -7.739143485805084e-16
rhumerus -35.5385965376101 -25.81474241074671 -74.17768262085934
rradius 22.234626590571697
rwrist 7.617528027349865
rhand -17.40347135621922 23.056993172342132
rfingers 7.12502
rthumb 8.766724742656354 -6.467523097884854
60
root -0.07328041768314802 17.827240626932625 21.441656436155256 -3.546555494020643 1.9888906509986763 -1.040153128345235
lfemur 9.61295936748549 -5.938200425240726 -22.213103598995932
ltibia 27.864685424656535
lfoot -4.1486365643124845 -10.29321643596887
ltoes -18.072055552143627
rfemur -22.6666747020964 2.7885459612769696 24.165402685659025
rtibia 27.229677125583823
rfoot -3.2747193703158572 -6.73737961702232
rtoes -1.200504380955211
lowerback 10.058937552874992 -1.0050559604751614 0.022267072331974003
upperback 0.44773685252440687 -1.345190220724419 1.8492653407297994
thorax -5.035549394093235 -0.6611172314748736 1.7974198504340666
lowerneck -16.234198761947283 -2.766828513838369 -2.5474195603851633
upperneck 19.973681457824 -3.535371192813392 1.6943627676724948
head 9.028964708975922 -1.6646082877200772 0.5794562839776303
lclavicle -4.517027107467506e-16 -7.751987845741603e-16
lhumerus -25.330060125542225 3.616913983765972 79.14470442983259
lradius 32.783657883274444
lwrist 9.646563927812451
lhand -31.337788116272787 17.33876482846925
lfingers 7.12502
lthumb -4.699088159284809 47.143214678536324
rclavicle -4.538501096055026e-16 -7.7553123613218e-16
rhumerus -36.3359281271616 -28.361239645210212 -72.1060178120513
rradius 20.552215100444677
rwrist 10.541080090717987
rhand -17.435692161429845 22.729087943017554
rfingers 7.12502
rthumb 8.758570999484602 -6.810231017720074
